<?xml version="1.0" encoding="utf-8" standalone="no"?>
<!DOCTYPE svg PUBLIC "-//W3C//DTD SVG 1.1//EN"
  "http://www.w3.org/Graphics/SVG/1.1/DTD/svg11.dtd">
<svg xmlns:xlink="http://www.w3.org/1999/xlink" width="460.8pt" height="345.6pt" viewBox="0 0 460.8 345.6" xmlns="http://www.w3.org/2000/svg" version="1.1">
 <metadata>
  <rdf:RDF xmlns:dc="http://purl.org/dc/elements/1.1/" xmlns:cc="http://creativecommons.org/ns#" xmlns:rdf="http://www.w3.org/1999/02/22-rdf-syntax-ns#">
   <cc:Work>
    <dc:type rdf:resource="http://purl.org/dc/dcmitype/StillImage"/>
    <dc:date>2024-09-08T22:29:15.541508</dc:date>
    <dc:format>image/svg+xml</dc:format>
    <dc:creator>
     <cc:Agent>
      <dc:title>Matplotlib v3.8.3, https://matplotlib.org/</dc:title>
     </cc:Agent>
    </dc:creator>
   </cc:Work>
  </rdf:RDF>
 </metadata>
 <defs>
  <style type="text/css">*{stroke-linejoin: round; stroke-linecap: butt}</style>
 </defs>
 <g id="figure_1">
  <g id="patch_1">
   <path d="M 0 345.6 
L 460.8 345.6 
L 460.8 0 
L 0 0 
z
" style="fill: #ffffff"/>
  </g>
  <g id="axes_1">
   <g id="patch_2">
    <path d="M 57.6 307.584 
L 414.72 307.584 
L 414.72 41.472 
L 57.6 41.472 
z
" style="fill: #ffffff"/>
   </g>
   <g id="matplotlib.axis_1">
    <g id="xtick_1">
     <g id="line2d_1">
      <defs>
       <path id="me382e3bc48" d="M 0 0 
L 0 3.5 
" style="stroke: #000000; stroke-width: 0.8"/>
      </defs>
      <g>
       <use xlink:href="#me382e3bc48" x="73.832727" y="307.584" style="stroke: #000000; stroke-width: 0.8"/>
      </g>
     </g>
     <g id="text_1">
      <!-- −200 -->
      <g transform="translate(60.099134 322.182437) scale(0.1 -0.1)">
       <defs>
        <path id="DejaVuSans-2212" d="M 678 2272 
L 4684 2272 
L 4684 1741 
L 678 1741 
L 678 2272 
z
" transform="scale(0.015625)"/>
        <path id="DejaVuSans-32" d="M 1228 531 
L 3431 531 
L 3431 0 
L 469 0 
L 469 531 
Q 828 903 1448 1529 
Q 2069 2156 2228 2338 
Q 2531 2678 2651 2914 
Q 2772 3150 2772 3378 
Q 2772 3750 2511 3984 
Q 2250 4219 1831 4219 
Q 1534 4219 1204 4116 
Q 875 4013 500 3803 
L 500 4441 
Q 881 4594 1212 4672 
Q 1544 4750 1819 4750 
Q 2544 4750 2975 4387 
Q 3406 4025 3406 3419 
Q 3406 3131 3298 2873 
Q 3191 2616 2906 2266 
Q 2828 2175 2409 1742 
Q 1991 1309 1228 531 
z
" transform="scale(0.015625)"/>
        <path id="DejaVuSans-30" d="M 2034 4250 
Q 1547 4250 1301 3770 
Q 1056 3291 1056 2328 
Q 1056 1369 1301 889 
Q 1547 409 2034 409 
Q 2525 409 2770 889 
Q 3016 1369 3016 2328 
Q 3016 3291 2770 3770 
Q 2525 4250 2034 4250 
z
M 2034 4750 
Q 2819 4750 3233 4129 
Q 3647 3509 3647 2328 
Q 3647 1150 3233 529 
Q 2819 -91 2034 -91 
Q 1250 -91 836 529 
Q 422 1150 422 2328 
Q 422 3509 836 4129 
Q 1250 4750 2034 4750 
z
" transform="scale(0.015625)"/>
       </defs>
       <use xlink:href="#DejaVuSans-2212"/>
       <use xlink:href="#DejaVuSans-32" x="83.789062"/>
       <use xlink:href="#DejaVuSans-30" x="147.412109"/>
       <use xlink:href="#DejaVuSans-30" x="211.035156"/>
      </g>
     </g>
    </g>
    <g id="xtick_2">
     <g id="line2d_2">
      <g>
       <use xlink:href="#me382e3bc48" x="120.884111" y="307.584" style="stroke: #000000; stroke-width: 0.8"/>
      </g>
     </g>
     <g id="text_2">
      <!-- −100 -->
      <g transform="translate(107.150517 322.182437) scale(0.1 -0.1)">
       <defs>
        <path id="DejaVuSans-31" d="M 794 531 
L 1825 531 
L 1825 4091 
L 703 3866 
L 703 4441 
L 1819 4666 
L 2450 4666 
L 2450 531 
L 3481 531 
L 3481 0 
L 794 0 
L 794 531 
z
" transform="scale(0.015625)"/>
       </defs>
       <use xlink:href="#DejaVuSans-2212"/>
       <use xlink:href="#DejaVuSans-31" x="83.789062"/>
       <use xlink:href="#DejaVuSans-30" x="147.412109"/>
       <use xlink:href="#DejaVuSans-30" x="211.035156"/>
      </g>
     </g>
    </g>
    <g id="xtick_3">
     <g id="line2d_3">
      <g>
       <use xlink:href="#me382e3bc48" x="167.935494" y="307.584" style="stroke: #000000; stroke-width: 0.8"/>
      </g>
     </g>
     <g id="text_3">
      <!-- 0 -->
      <g transform="translate(164.754244 322.182437) scale(0.1 -0.1)">
       <use xlink:href="#DejaVuSans-30"/>
      </g>
     </g>
    </g>
    <g id="xtick_4">
     <g id="line2d_4">
      <g>
       <use xlink:href="#me382e3bc48" x="214.986877" y="307.584" style="stroke: #000000; stroke-width: 0.8"/>
      </g>
     </g>
     <g id="text_4">
      <!-- 100 -->
      <g transform="translate(205.443127 322.182437) scale(0.1 -0.1)">
       <use xlink:href="#DejaVuSans-31"/>
       <use xlink:href="#DejaVuSans-30" x="63.623047"/>
       <use xlink:href="#DejaVuSans-30" x="127.246094"/>
      </g>
     </g>
    </g>
    <g id="xtick_5">
     <g id="line2d_5">
      <g>
       <use xlink:href="#me382e3bc48" x="262.038261" y="307.584" style="stroke: #000000; stroke-width: 0.8"/>
      </g>
     </g>
     <g id="text_5">
      <!-- 200 -->
      <g transform="translate(252.494511 322.182437) scale(0.1 -0.1)">
       <use xlink:href="#DejaVuSans-32"/>
       <use xlink:href="#DejaVuSans-30" x="63.623047"/>
       <use xlink:href="#DejaVuSans-30" x="127.246094"/>
      </g>
     </g>
    </g>
    <g id="xtick_6">
     <g id="line2d_6">
      <g>
       <use xlink:href="#me382e3bc48" x="309.089644" y="307.584" style="stroke: #000000; stroke-width: 0.8"/>
      </g>
     </g>
     <g id="text_6">
      <!-- 300 -->
      <g transform="translate(299.545894 322.182437) scale(0.1 -0.1)">
       <defs>
        <path id="DejaVuSans-33" d="M 2597 2516 
Q 3050 2419 3304 2112 
Q 3559 1806 3559 1356 
Q 3559 666 3084 287 
Q 2609 -91 1734 -91 
Q 1441 -91 1130 -33 
Q 819 25 488 141 
L 488 750 
Q 750 597 1062 519 
Q 1375 441 1716 441 
Q 2309 441 2620 675 
Q 2931 909 2931 1356 
Q 2931 1769 2642 2001 
Q 2353 2234 1838 2234 
L 1294 2234 
L 1294 2753 
L 1863 2753 
Q 2328 2753 2575 2939 
Q 2822 3125 2822 3475 
Q 2822 3834 2567 4026 
Q 2313 4219 1838 4219 
Q 1578 4219 1281 4162 
Q 984 4106 628 3988 
L 628 4550 
Q 988 4650 1302 4700 
Q 1616 4750 1894 4750 
Q 2613 4750 3031 4423 
Q 3450 4097 3450 3541 
Q 3450 3153 3228 2886 
Q 3006 2619 2597 2516 
z
" transform="scale(0.015625)"/>
       </defs>
       <use xlink:href="#DejaVuSans-33"/>
       <use xlink:href="#DejaVuSans-30" x="63.623047"/>
       <use xlink:href="#DejaVuSans-30" x="127.246094"/>
      </g>
     </g>
    </g>
    <g id="xtick_7">
     <g id="line2d_7">
      <g>
       <use xlink:href="#me382e3bc48" x="356.141028" y="307.584" style="stroke: #000000; stroke-width: 0.8"/>
      </g>
     </g>
     <g id="text_7">
      <!-- 400 -->
      <g transform="translate(346.597278 322.182437) scale(0.1 -0.1)">
       <defs>
        <path id="DejaVuSans-34" d="M 2419 4116 
L 825 1625 
L 2419 1625 
L 2419 4116 
z
M 2253 4666 
L 3047 4666 
L 3047 1625 
L 3713 1625 
L 3713 1100 
L 3047 1100 
L 3047 0 
L 2419 0 
L 2419 1100 
L 313 1100 
L 313 1709 
L 2253 4666 
z
" transform="scale(0.015625)"/>
       </defs>
       <use xlink:href="#DejaVuSans-34"/>
       <use xlink:href="#DejaVuSans-30" x="63.623047"/>
       <use xlink:href="#DejaVuSans-30" x="127.246094"/>
      </g>
     </g>
    </g>
    <g id="xtick_8">
     <g id="line2d_8">
      <g>
       <use xlink:href="#me382e3bc48" x="403.192411" y="307.584" style="stroke: #000000; stroke-width: 0.8"/>
      </g>
     </g>
     <g id="text_8">
      <!-- 500 -->
      <g transform="translate(393.648661 322.182437) scale(0.1 -0.1)">
       <defs>
        <path id="DejaVuSans-35" d="M 691 4666 
L 3169 4666 
L 3169 4134 
L 1269 4134 
L 1269 2991 
Q 1406 3038 1543 3061 
Q 1681 3084 1819 3084 
Q 2600 3084 3056 2656 
Q 3513 2228 3513 1497 
Q 3513 744 3044 326 
Q 2575 -91 1722 -91 
Q 1428 -91 1123 -41 
Q 819 9 494 109 
L 494 744 
Q 775 591 1075 516 
Q 1375 441 1709 441 
Q 2250 441 2565 725 
Q 2881 1009 2881 1497 
Q 2881 1984 2565 2268 
Q 2250 2553 1709 2553 
Q 1456 2553 1204 2497 
Q 953 2441 691 2322 
L 691 4666 
z
" transform="scale(0.015625)"/>
       </defs>
       <use xlink:href="#DejaVuSans-35"/>
       <use xlink:href="#DejaVuSans-30" x="63.623047"/>
       <use xlink:href="#DejaVuSans-30" x="127.246094"/>
      </g>
     </g>
    </g>
    <g id="text_9">
     <!-- Time (ms) -->
     <g transform="translate(210.960781 335.860562) scale(0.1 -0.1)">
      <defs>
       <path id="DejaVuSans-54" d="M -19 4666 
L 3928 4666 
L 3928 4134 
L 2272 4134 
L 2272 0 
L 1638 0 
L 1638 4134 
L -19 4134 
L -19 4666 
z
" transform="scale(0.015625)"/>
       <path id="DejaVuSans-69" d="M 603 3500 
L 1178 3500 
L 1178 0 
L 603 0 
L 603 3500 
z
M 603 4863 
L 1178 4863 
L 1178 4134 
L 603 4134 
L 603 4863 
z
" transform="scale(0.015625)"/>
       <path id="DejaVuSans-6d" d="M 3328 2828 
Q 3544 3216 3844 3400 
Q 4144 3584 4550 3584 
Q 5097 3584 5394 3201 
Q 5691 2819 5691 2113 
L 5691 0 
L 5113 0 
L 5113 2094 
Q 5113 2597 4934 2840 
Q 4756 3084 4391 3084 
Q 3944 3084 3684 2787 
Q 3425 2491 3425 1978 
L 3425 0 
L 2847 0 
L 2847 2094 
Q 2847 2600 2669 2842 
Q 2491 3084 2119 3084 
Q 1678 3084 1418 2786 
Q 1159 2488 1159 1978 
L 1159 0 
L 581 0 
L 581 3500 
L 1159 3500 
L 1159 2956 
Q 1356 3278 1631 3431 
Q 1906 3584 2284 3584 
Q 2666 3584 2933 3390 
Q 3200 3197 3328 2828 
z
" transform="scale(0.015625)"/>
       <path id="DejaVuSans-65" d="M 3597 1894 
L 3597 1613 
L 953 1613 
Q 991 1019 1311 708 
Q 1631 397 2203 397 
Q 2534 397 2845 478 
Q 3156 559 3463 722 
L 3463 178 
Q 3153 47 2828 -22 
Q 2503 -91 2169 -91 
Q 1331 -91 842 396 
Q 353 884 353 1716 
Q 353 2575 817 3079 
Q 1281 3584 2069 3584 
Q 2775 3584 3186 3129 
Q 3597 2675 3597 1894 
z
M 3022 2063 
Q 3016 2534 2758 2815 
Q 2500 3097 2075 3097 
Q 1594 3097 1305 2825 
Q 1016 2553 972 2059 
L 3022 2063 
z
" transform="scale(0.015625)"/>
       <path id="DejaVuSans-20" transform="scale(0.015625)"/>
       <path id="DejaVuSans-28" d="M 1984 4856 
Q 1566 4138 1362 3434 
Q 1159 2731 1159 2009 
Q 1159 1288 1364 580 
Q 1569 -128 1984 -844 
L 1484 -844 
Q 1016 -109 783 600 
Q 550 1309 550 2009 
Q 550 2706 781 3412 
Q 1013 4119 1484 4856 
L 1984 4856 
z
" transform="scale(0.015625)"/>
       <path id="DejaVuSans-73" d="M 2834 3397 
L 2834 2853 
Q 2591 2978 2328 3040 
Q 2066 3103 1784 3103 
Q 1356 3103 1142 2972 
Q 928 2841 928 2578 
Q 928 2378 1081 2264 
Q 1234 2150 1697 2047 
L 1894 2003 
Q 2506 1872 2764 1633 
Q 3022 1394 3022 966 
Q 3022 478 2636 193 
Q 2250 -91 1575 -91 
Q 1294 -91 989 -36 
Q 684 19 347 128 
L 347 722 
Q 666 556 975 473 
Q 1284 391 1588 391 
Q 1994 391 2212 530 
Q 2431 669 2431 922 
Q 2431 1156 2273 1281 
Q 2116 1406 1581 1522 
L 1381 1569 
Q 847 1681 609 1914 
Q 372 2147 372 2553 
Q 372 3047 722 3315 
Q 1072 3584 1716 3584 
Q 2034 3584 2315 3537 
Q 2597 3491 2834 3397 
z
" transform="scale(0.015625)"/>
       <path id="DejaVuSans-29" d="M 513 4856 
L 1013 4856 
Q 1481 4119 1714 3412 
Q 1947 2706 1947 2009 
Q 1947 1309 1714 600 
Q 1481 -109 1013 -844 
L 513 -844 
Q 928 -128 1133 580 
Q 1338 1288 1338 2009 
Q 1338 2731 1133 3434 
Q 928 4138 513 4856 
z
" transform="scale(0.015625)"/>
      </defs>
      <use xlink:href="#DejaVuSans-54"/>
      <use xlink:href="#DejaVuSans-69" x="57.958984"/>
      <use xlink:href="#DejaVuSans-6d" x="85.742188"/>
      <use xlink:href="#DejaVuSans-65" x="183.154297"/>
      <use xlink:href="#DejaVuSans-20" x="244.677734"/>
      <use xlink:href="#DejaVuSans-28" x="276.464844"/>
      <use xlink:href="#DejaVuSans-6d" x="315.478516"/>
      <use xlink:href="#DejaVuSans-73" x="412.890625"/>
      <use xlink:href="#DejaVuSans-29" x="464.990234"/>
     </g>
    </g>
   </g>
   <g id="matplotlib.axis_2"/>
   <g id="line2d_9">
    <path d="M 73.832727 293.240057 
L 78.537866 293.15935 
L 83.243004 292.563017 
L 87.948142 293.180373 
L 92.653281 292.955509 
L 97.358419 293.844486 
L 102.063557 293.719221 
L 106.768696 294.071651 
L 111.473834 293.034879 
L 116.178972 294.036647 
L 120.884111 293.126435 
L 125.589249 293.713662 
L 130.294387 292.894959 
L 134.999526 293.572971 
L 139.704664 293.469307 
L 144.409802 293.879972 
L 149.114941 292.982414 
L 153.820079 293.613873 
L 158.525217 293.366669 
L 163.230356 293.381532 
L 167.935494 292.00832 
L 172.640632 293.51206 
L 177.345771 290.52127 
L 182.050909 284.429406 
L 186.756047 277.987989 
L 191.461186 279.181763 
L 196.166324 278.535758 
L 200.871462 282.296434 
L 205.576601 285.047396 
L 210.281739 287.230174 
L 214.986877 288.752784 
L 219.692016 289.358896 
L 224.397154 289.398473 
L 229.102292 288.754695 
L 233.807431 285.110875 
L 238.512569 288.016246 
L 243.217708 288.947693 
L 247.922846 289.045699 
L 252.627984 288.438504 
L 257.333123 290.964217 
L 262.038261 291.247251 
L 266.743399 290.19898 
L 271.448538 288.413656 
L 276.153676 289.41871 
L 280.858814 290.235515 
L 285.563953 290.857417 
L 290.269091 290.783868 
L 294.974229 290.841026 
L 299.679368 290.639172 
L 304.384506 291.263248 
L 309.089644 291.489951 
L 313.794783 291.725041 
L 318.499921 291.226799 
L 323.205059 291.182748 
L 327.910198 290.233221 
L 332.615336 289.94281 
L 337.320474 289.108642 
L 342.025613 289.550347 
L 346.730751 289.339297 
L 351.435889 289.804873 
L 356.141028 289.723486 
L 360.846166 289.915591 
L 365.551304 289.697872 
L 370.256443 289.701369 
L 374.961581 289.344953 
L 379.666719 289.375425 
L 384.371858 289.008718 
L 389.076996 289.091592 
L 393.782134 288.765715 
L 398.487273 288.765715 
" clip-path="url(#p8156c0f36d)" style="fill: none; stroke: #1f77b4; stroke-width: 1.5; stroke-linecap: square"/>
   </g>
   <g id="line2d_10">
    <path d="M 73.832727 190.60037 
L 78.537866 190.52799 
L 83.243004 190.455611 
L 87.948142 188.96188 
L 92.653281 187.468149 
L 97.358419 189.186983 
L 102.063557 190.905817 
L 106.768696 190.385672 
L 111.473834 189.865527 
L 116.178972 190.091001 
L 120.884111 190.316474 
L 125.589249 191.411858 
L 130.294387 192.507242 
L 134.999526 191.262833 
L 139.704664 190.018423 
L 144.409802 189.505423 
L 149.114941 188.992424 
L 153.820079 190.006672 
L 158.525217 191.020919 
L 163.230356 185.935486 
L 167.935494 180.850054 
L 172.640632 179.528861 
L 177.345771 178.207669 
L 182.050909 172.891803 
L 186.756047 167.575937 
L 191.461186 161.632183 
L 196.166324 155.68843 
L 200.871462 158.525455 
L 205.576601 161.36248 
L 210.281739 161.990477 
L 214.986877 162.618474 
L 219.692016 162.58784 
L 224.397154 162.557206 
L 229.102292 161.122376 
L 233.807431 159.687545 
L 238.512569 159.317648 
L 243.217708 158.94775 
L 247.922846 162.902122 
L 252.627984 166.856494 
L 257.333123 172.043692 
L 262.038261 177.230889 
L 266.743399 178.931071 
L 271.448538 180.631252 
L 276.153676 179.921494 
L 280.858814 179.211735 
L 285.563953 176.795851 
L 290.269091 174.379967 
L 294.974229 174.876793 
L 299.679368 175.37362 
L 304.384506 176.162287 
L 309.089644 176.950953 
L 313.794783 176.075888 
L 318.499921 175.200822 
L 323.205059 174.601457 
L 327.910198 174.002091 
L 332.615336 174.956339 
L 337.320474 175.910586 
L 342.025613 172.803707 
L 346.730751 169.696828 
L 351.435889 170.443884 
L 356.141028 171.19094 
L 360.846166 170.492571 
L 365.551304 169.794202 
L 370.256443 169.788642 
L 374.961581 169.783083 
L 379.666719 172.319522 
L 384.371858 174.855961 
L 389.076996 175.946776 
L 393.782134 177.03759 
L 398.487273 177.03759 
" clip-path="url(#p8156c0f36d)" style="fill: none; stroke: #ffa500; stroke-width: 1.5; stroke-linecap: square"/>
   </g>
   <g id="line2d_11">
    <path d="M 73.832727 117.249034 
L 78.537866 139.803851 
L 83.243004 113.254083 
L 87.948142 135.482268 
L 92.653281 112.070197 
L 97.358419 137.366367 
L 102.063557 116.38803 
L 106.768696 138.62221 
L 111.473834 112.130964 
L 116.178972 135.618145 
L 120.884111 116.499227 
L 125.589249 142.585009 
L 130.294387 122.472751 
L 134.999526 139.312139 
L 139.704664 110.75014 
L 144.409802 133.023425 
L 149.114941 110.608907 
L 153.820079 134.434054 
L 158.525217 110.592265 
L 163.230356 128.742066 
L 167.935494 94.912629 
L 172.640632 120.935102 
L 177.345771 90.815364 
L 182.050909 109.871423 
L 186.756047 71.445667 
L 191.461186 94.138845 
L 196.166324 57.557581 
L 200.871462 95.014353 
L 205.576601 75.677685 
L 210.281739 100.135129 
L 214.986877 68.862988 
L 219.692016 91.498703 
L 224.397154 53.568 
L 229.102292 87.566496 
L 233.807431 58.076121 
L 238.512569 88.000401 
L 243.217708 56.970616 
L 247.922846 97.662922 
L 252.627984 81.853263 
L 257.333123 115.211584 
L 262.038261 100.337066 
L 266.743399 124.330383 
L 271.448538 102.385452 
L 276.153676 123.798787 
L 280.858814 101.923261 
L 285.563953 119.717707 
L 290.269091 84.737227 
L 294.974229 111.700418 
L 299.679368 92.137589 
L 304.384506 115.731963 
L 309.089644 93.040998 
L 313.794783 116.321093 
L 318.499921 81.557542 
L 323.205059 114.582006 
L 327.910198 88.991338 
L 332.615336 116.007188 
L 337.320474 90.649807 
L 342.025613 110.900142 
L 346.730751 77.826753 
L 351.435889 105.053282 
L 356.141028 75.116087 
L 360.846166 104.486694 
L 365.551304 77.957083 
L 370.256443 104.309625 
L 374.961581 79.463039 
L 379.666719 109.745121 
L 384.371858 86.548552 
L 389.076996 115.038753 
L 393.782134 94.449605 
L 398.487273 94.449605 
" clip-path="url(#p8156c0f36d)" style="fill: none; stroke-dasharray: 1.5,2.475; stroke-dashoffset: 0; stroke: #ffa500; stroke-width: 1.5"/>
   </g>
   <g id="line2d_12">
    <path d="M 73.832727 239.233581 
L 78.537866 227.589857 
L 83.243004 240.089414 
L 87.948142 227.638199 
L 92.653281 238.326051 
L 97.358419 227.114437 
L 102.063557 240.565832 
L 106.768696 228.373979 
L 111.473834 238.733605 
L 116.178972 227.826952 
L 120.884111 239.641169 
L 125.589249 228.454646 
L 130.294387 239.912548 
L 134.999526 227.9371 
L 139.704664 238.57275 
L 144.409802 227.154331 
L 149.114941 238.099764 
L 153.820079 227.490164 
L 158.525217 240.618875 
L 163.230356 224.518974 
L 167.935494 234.50087 
L 172.640632 220.930611 
L 177.345771 233.686909 
L 182.050909 215.895641 
L 186.756047 225.668331 
L 191.461186 206.834515 
L 196.166324 219.259666 
L 200.871462 204.823277 
L 205.576601 221.347141 
L 210.281739 207.319637 
L 214.986877 224.431276 
L 219.692016 208.962129 
L 224.397154 225.323357 
L 229.102292 210.153769 
L 233.807431 224.429538 
L 238.512569 208.454734 
L 243.217708 223.8548 
L 247.922846 209.077002 
L 252.627984 225.942698 
L 257.333123 215.114727 
L 262.038261 230.689832 
L 266.743399 219.602722 
L 271.448538 233.75933 
L 276.153676 220.601112 
L 280.858814 233.821319 
L 285.563953 219.398555 
L 290.269091 232.795501 
L 294.974229 218.374848 
L 299.679368 231.999993 
L 304.384506 218.785731 
L 309.089644 233.084238 
L 313.794783 217.233802 
L 318.499921 230.998041 
L 323.205059 218.206066 
L 327.910198 231.389472 
L 332.615336 218.303092 
L 337.320474 232.193608 
L 342.025613 217.102991 
L 346.730751 229.437108 
L 351.435889 214.935586 
L 356.141028 230.419462 
L 360.846166 215.701403 
L 365.551304 230.435568 
L 370.256443 214.873772 
L 374.961581 229.092299 
L 379.666719 216.284295 
L 384.371858 231.721542 
L 389.076996 217.87027 
L 393.782134 233.073324 
L 398.487273 233.073324 
" clip-path="url(#p8156c0f36d)" style="fill: none; stroke-dasharray: 1.5,2.475; stroke-dashoffset: 0; stroke: #ffa500; stroke-width: 1.5"/>
   </g>
   <g id="LineCollection_1">
    <path d="M 167.935494 295.488 
L 167.935494 287.749469 
" clip-path="url(#p8156c0f36d)" style="fill: none; stroke-dasharray: 5.55,2.4; stroke-dashoffset: 0; stroke: #000000; stroke-width: 1.5"/>
   </g>
   <g id="patch_3">
    <path d="M 57.6 307.584 
L 57.6 41.472 
" style="fill: none; stroke: #000000; stroke-width: 0.8; stroke-linejoin: miter; stroke-linecap: square"/>
   </g>
   <g id="patch_4">
    <path d="M 414.72 307.584 
L 414.72 41.472 
" style="fill: none; stroke: #000000; stroke-width: 0.8; stroke-linejoin: miter; stroke-linecap: square"/>
   </g>
   <g id="patch_5">
    <path d="M 57.6 307.584 
L 414.72 307.584 
" style="fill: none; stroke: #000000; stroke-width: 0.8; stroke-linejoin: miter; stroke-linecap: square"/>
   </g>
   <g id="patch_6">
    <path d="M 57.6 41.472 
L 414.72 41.472 
" style="fill: none; stroke: #000000; stroke-width: 0.8; stroke-linejoin: miter; stroke-linecap: square"/>
   </g>
   <g id="text_10">
    <!-- RpExtra - RpPeri Euclidian Distance -->
    <g transform="translate(129.930937 35.472) scale(0.12 -0.12)">
     <defs>
      <path id="DejaVuSans-52" d="M 2841 2188 
Q 3044 2119 3236 1894 
Q 3428 1669 3622 1275 
L 4263 0 
L 3584 0 
L 2988 1197 
Q 2756 1666 2539 1819 
Q 2322 1972 1947 1972 
L 1259 1972 
L 1259 0 
L 628 0 
L 628 4666 
L 2053 4666 
Q 2853 4666 3247 4331 
Q 3641 3997 3641 3322 
Q 3641 2881 3436 2590 
Q 3231 2300 2841 2188 
z
M 1259 4147 
L 1259 2491 
L 2053 2491 
Q 2509 2491 2742 2702 
Q 2975 2913 2975 3322 
Q 2975 3731 2742 3939 
Q 2509 4147 2053 4147 
L 1259 4147 
z
" transform="scale(0.015625)"/>
      <path id="DejaVuSans-70" d="M 1159 525 
L 1159 -1331 
L 581 -1331 
L 581 3500 
L 1159 3500 
L 1159 2969 
Q 1341 3281 1617 3432 
Q 1894 3584 2278 3584 
Q 2916 3584 3314 3078 
Q 3713 2572 3713 1747 
Q 3713 922 3314 415 
Q 2916 -91 2278 -91 
Q 1894 -91 1617 61 
Q 1341 213 1159 525 
z
M 3116 1747 
Q 3116 2381 2855 2742 
Q 2594 3103 2138 3103 
Q 1681 3103 1420 2742 
Q 1159 2381 1159 1747 
Q 1159 1113 1420 752 
Q 1681 391 2138 391 
Q 2594 391 2855 752 
Q 3116 1113 3116 1747 
z
" transform="scale(0.015625)"/>
      <path id="DejaVuSans-45" d="M 628 4666 
L 3578 4666 
L 3578 4134 
L 1259 4134 
L 1259 2753 
L 3481 2753 
L 3481 2222 
L 1259 2222 
L 1259 531 
L 3634 531 
L 3634 0 
L 628 0 
L 628 4666 
z
" transform="scale(0.015625)"/>
      <path id="DejaVuSans-78" d="M 3513 3500 
L 2247 1797 
L 3578 0 
L 2900 0 
L 1881 1375 
L 863 0 
L 184 0 
L 1544 1831 
L 300 3500 
L 978 3500 
L 1906 2253 
L 2834 3500 
L 3513 3500 
z
" transform="scale(0.015625)"/>
      <path id="DejaVuSans-74" d="M 1172 4494 
L 1172 3500 
L 2356 3500 
L 2356 3053 
L 1172 3053 
L 1172 1153 
Q 1172 725 1289 603 
Q 1406 481 1766 481 
L 2356 481 
L 2356 0 
L 1766 0 
Q 1100 0 847 248 
Q 594 497 594 1153 
L 594 3053 
L 172 3053 
L 172 3500 
L 594 3500 
L 594 4494 
L 1172 4494 
z
" transform="scale(0.015625)"/>
      <path id="DejaVuSans-72" d="M 2631 2963 
Q 2534 3019 2420 3045 
Q 2306 3072 2169 3072 
Q 1681 3072 1420 2755 
Q 1159 2438 1159 1844 
L 1159 0 
L 581 0 
L 581 3500 
L 1159 3500 
L 1159 2956 
Q 1341 3275 1631 3429 
Q 1922 3584 2338 3584 
Q 2397 3584 2469 3576 
Q 2541 3569 2628 3553 
L 2631 2963 
z
" transform="scale(0.015625)"/>
      <path id="DejaVuSans-61" d="M 2194 1759 
Q 1497 1759 1228 1600 
Q 959 1441 959 1056 
Q 959 750 1161 570 
Q 1363 391 1709 391 
Q 2188 391 2477 730 
Q 2766 1069 2766 1631 
L 2766 1759 
L 2194 1759 
z
M 3341 1997 
L 3341 0 
L 2766 0 
L 2766 531 
Q 2569 213 2275 61 
Q 1981 -91 1556 -91 
Q 1019 -91 701 211 
Q 384 513 384 1019 
Q 384 1609 779 1909 
Q 1175 2209 1959 2209 
L 2766 2209 
L 2766 2266 
Q 2766 2663 2505 2880 
Q 2244 3097 1772 3097 
Q 1472 3097 1187 3025 
Q 903 2953 641 2809 
L 641 3341 
Q 956 3463 1253 3523 
Q 1550 3584 1831 3584 
Q 2591 3584 2966 3190 
Q 3341 2797 3341 1997 
z
" transform="scale(0.015625)"/>
      <path id="DejaVuSans-2d" d="M 313 2009 
L 1997 2009 
L 1997 1497 
L 313 1497 
L 313 2009 
z
" transform="scale(0.015625)"/>
      <path id="DejaVuSans-50" d="M 1259 4147 
L 1259 2394 
L 2053 2394 
Q 2494 2394 2734 2622 
Q 2975 2850 2975 3272 
Q 2975 3691 2734 3919 
Q 2494 4147 2053 4147 
L 1259 4147 
z
M 628 4666 
L 2053 4666 
Q 2838 4666 3239 4311 
Q 3641 3956 3641 3272 
Q 3641 2581 3239 2228 
Q 2838 1875 2053 1875 
L 1259 1875 
L 1259 0 
L 628 0 
L 628 4666 
z
" transform="scale(0.015625)"/>
      <path id="DejaVuSans-75" d="M 544 1381 
L 544 3500 
L 1119 3500 
L 1119 1403 
Q 1119 906 1312 657 
Q 1506 409 1894 409 
Q 2359 409 2629 706 
Q 2900 1003 2900 1516 
L 2900 3500 
L 3475 3500 
L 3475 0 
L 2900 0 
L 2900 538 
Q 2691 219 2414 64 
Q 2138 -91 1772 -91 
Q 1169 -91 856 284 
Q 544 659 544 1381 
z
M 1991 3584 
L 1991 3584 
z
" transform="scale(0.015625)"/>
      <path id="DejaVuSans-63" d="M 3122 3366 
L 3122 2828 
Q 2878 2963 2633 3030 
Q 2388 3097 2138 3097 
Q 1578 3097 1268 2742 
Q 959 2388 959 1747 
Q 959 1106 1268 751 
Q 1578 397 2138 397 
Q 2388 397 2633 464 
Q 2878 531 3122 666 
L 3122 134 
Q 2881 22 2623 -34 
Q 2366 -91 2075 -91 
Q 1284 -91 818 406 
Q 353 903 353 1747 
Q 353 2603 823 3093 
Q 1294 3584 2113 3584 
Q 2378 3584 2631 3529 
Q 2884 3475 3122 3366 
z
" transform="scale(0.015625)"/>
      <path id="DejaVuSans-6c" d="M 603 4863 
L 1178 4863 
L 1178 0 
L 603 0 
L 603 4863 
z
" transform="scale(0.015625)"/>
      <path id="DejaVuSans-64" d="M 2906 2969 
L 2906 4863 
L 3481 4863 
L 3481 0 
L 2906 0 
L 2906 525 
Q 2725 213 2448 61 
Q 2172 -91 1784 -91 
Q 1150 -91 751 415 
Q 353 922 353 1747 
Q 353 2572 751 3078 
Q 1150 3584 1784 3584 
Q 2172 3584 2448 3432 
Q 2725 3281 2906 2969 
z
M 947 1747 
Q 947 1113 1208 752 
Q 1469 391 1925 391 
Q 2381 391 2643 752 
Q 2906 1113 2906 1747 
Q 2906 2381 2643 2742 
Q 2381 3103 1925 3103 
Q 1469 3103 1208 2742 
Q 947 2381 947 1747 
z
" transform="scale(0.015625)"/>
      <path id="DejaVuSans-6e" d="M 3513 2113 
L 3513 0 
L 2938 0 
L 2938 2094 
Q 2938 2591 2744 2837 
Q 2550 3084 2163 3084 
Q 1697 3084 1428 2787 
Q 1159 2491 1159 1978 
L 1159 0 
L 581 0 
L 581 3500 
L 1159 3500 
L 1159 2956 
Q 1366 3272 1645 3428 
Q 1925 3584 2291 3584 
Q 2894 3584 3203 3211 
Q 3513 2838 3513 2113 
z
" transform="scale(0.015625)"/>
      <path id="DejaVuSans-44" d="M 1259 4147 
L 1259 519 
L 2022 519 
Q 2988 519 3436 956 
Q 3884 1394 3884 2338 
Q 3884 3275 3436 3711 
Q 2988 4147 2022 4147 
L 1259 4147 
z
M 628 4666 
L 1925 4666 
Q 3281 4666 3915 4102 
Q 4550 3538 4550 2338 
Q 4550 1131 3912 565 
Q 3275 0 1925 0 
L 628 0 
L 628 4666 
z
" transform="scale(0.015625)"/>
     </defs>
     <use xlink:href="#DejaVuSans-52"/>
     <use xlink:href="#DejaVuSans-70" x="69.482422"/>
     <use xlink:href="#DejaVuSans-45" x="132.958984"/>
     <use xlink:href="#DejaVuSans-78" x="196.142578"/>
     <use xlink:href="#DejaVuSans-74" x="255.322266"/>
     <use xlink:href="#DejaVuSans-72" x="294.53125"/>
     <use xlink:href="#DejaVuSans-61" x="335.644531"/>
     <use xlink:href="#DejaVuSans-20" x="396.923828"/>
     <use xlink:href="#DejaVuSans-2d" x="428.710938"/>
     <use xlink:href="#DejaVuSans-20" x="464.794922"/>
     <use xlink:href="#DejaVuSans-52" x="496.582031"/>
     <use xlink:href="#DejaVuSans-70" x="566.064453"/>
     <use xlink:href="#DejaVuSans-50" x="629.541016"/>
     <use xlink:href="#DejaVuSans-65" x="686.21875"/>
     <use xlink:href="#DejaVuSans-72" x="747.742188"/>
     <use xlink:href="#DejaVuSans-69" x="788.855469"/>
     <use xlink:href="#DejaVuSans-20" x="816.638672"/>
     <use xlink:href="#DejaVuSans-45" x="848.425781"/>
     <use xlink:href="#DejaVuSans-75" x="911.609375"/>
     <use xlink:href="#DejaVuSans-63" x="974.988281"/>
     <use xlink:href="#DejaVuSans-6c" x="1029.96875"/>
     <use xlink:href="#DejaVuSans-69" x="1057.751953"/>
     <use xlink:href="#DejaVuSans-64" x="1085.535156"/>
     <use xlink:href="#DejaVuSans-69" x="1149.011719"/>
     <use xlink:href="#DejaVuSans-61" x="1176.794922"/>
     <use xlink:href="#DejaVuSans-6e" x="1238.074219"/>
     <use xlink:href="#DejaVuSans-20" x="1301.453125"/>
     <use xlink:href="#DejaVuSans-44" x="1333.240234"/>
     <use xlink:href="#DejaVuSans-69" x="1410.242188"/>
     <use xlink:href="#DejaVuSans-73" x="1438.025391"/>
     <use xlink:href="#DejaVuSans-74" x="1490.125"/>
     <use xlink:href="#DejaVuSans-61" x="1529.333984"/>
     <use xlink:href="#DejaVuSans-6e" x="1590.613281"/>
     <use xlink:href="#DejaVuSans-63" x="1653.992188"/>
     <use xlink:href="#DejaVuSans-65" x="1708.972656"/>
    </g>
   </g>
  </g>
 </g>
 <defs>
  <clipPath id="p8156c0f36d">
   <rect x="57.6" y="41.472" width="357.12" height="266.112"/>
  </clipPath>
 </defs>
</svg>
